<?xml version="1.0" standalone="no"?>
<!DOCTYPE svg PUBLIC "-//W3C//DTD SVG 20010904//EN"
 "http://www.w3.org/TR/2001/REC-SVG-20010904/DTD/svg10.dtd">
<svg version="1.0" xmlns="http://www.w3.org/2000/svg"
 width="512.000000pt" height="512.000000pt" viewBox="0 0 512.000000 512.000000"
 preserveAspectRatio="xMidYMid meet">
<metadata>
Created by potrace 1.11, written by Peter Selinger 2001-2013
</metadata>
<g transform="translate(0.000000,512.000000) scale(0.100000,-0.100000)"
fill="#000000" stroke="none">
<path d="M2345 5111 c-11 -5 -46 -7 -78 -6 -32 1 -60 -2 -63 -6 -3 -5 -23 -9
-44 -9 -21 0 -41 -4 -45 -9 -3 -6 -21 -8 -40 -7 -20 2 -39 -2 -45 -10 -6 -7
-18 -10 -26 -7 -8 3 -20 1 -27 -5 -6 -5 -20 -8 -29 -7 -10 2 -20 -1 -24 -6 -3
-5 -18 -9 -34 -9 -16 0 -32 -5 -36 -11 -3 -6 -15 -9 -25 -6 -10 3 -22 1 -25
-4 -3 -5 -16 -9 -30 -9 -13 0 -24 -5 -24 -10 0 -6 -3 -9 -7 -8 -12 2 -65 -12
-98 -27 -25 -12 -52 -22 -75 -30 -3 -1 -17 -5 -32 -9 -16 -5 -28 -12 -28 -17
0 -5 -3 -9 -7 -8 -16 2 -53 -14 -53 -22 0 -5 -6 -9 -12 -9 -16 0 -101 -42
-109 -54 -4 -5 -11 -6 -17 -2 -6 3 -12 1 -14 -5 -4 -12 -63 -50 -105 -69 -13
-5 -23 -14 -23 -19 0 -5 -8 -11 -17 -15 -26 -8 -55 -28 -80 -53 -12 -13 -26
-23 -31 -23 -11 0 -49 -31 -108 -87 -25 -24 -48 -43 -53 -43 -10 0 -215 -206
-210 -211 2 -2 -20 -26 -48 -53 -29 -27 -50 -53 -48 -56 2 -4 -7 -16 -20 -28
-13 -12 -37 -40 -52 -64 -15 -24 -30 -45 -33 -48 -7 -7 -29 -42 -37 -60 -4 -8
-13 -21 -20 -30 -7 -8 -13 -19 -12 -23 0 -5 -8 -15 -18 -22 -10 -7 -18 -17
-19 -22 -1 -12 -17 -47 -23 -53 -11 -9 -31 -44 -42 -72 -6 -16 -15 -28 -20
-28 -5 0 -9 -7 -9 -16 0 -8 -9 -32 -19 -52 -34 -64 -71 -152 -71 -167 0 -8 -5
-15 -11 -15 -5 0 -8 -4 -4 -9 3 -5 1 -12 -4 -15 -4 -3 -12 -20 -16 -38 -4 -18
-8 -35 -9 -38 -1 -3 -4 -10 -8 -15 -3 -6 -9 -27 -13 -48 -4 -20 -11 -40 -16
-43 -5 -3 -9 -18 -9 -34 0 -16 -4 -31 -9 -35 -6 -3 -8 -14 -6 -25 2 -11 0 -22
-6 -25 -5 -4 -9 -19 -9 -35 0 -16 -4 -31 -9 -34 -5 -3 -7 -22 -5 -41 1 -19 -1
-37 -7 -40 -5 -4 -9 -26 -9 -50 0 -24 -4 -46 -9 -49 -5 -3 -7 -33 -6 -66 1
-33 -1 -63 -6 -66 -11 -7 -12 -341 -1 -348 5 -3 8 -35 7 -71 0 -36 3 -65 7
-65 4 0 8 -27 8 -59 0 -33 4 -62 9 -65 5 -3 8 -22 6 -41 -1 -20 2 -38 7 -41 4
-3 8 -23 8 -45 0 -21 4 -39 9 -39 6 0 8 -16 7 -35 -2 -19 0 -35 5 -35 5 0 9
-11 9 -25 0 -14 5 -25 12 -25 6 0 9 -3 5 -6 -3 -3 1 -23 8 -45 8 -22 14 -41
15 -44 2 -35 12 -62 42 -119 12 -21 15 -36 8 -31 -9 6 -9 2 1 -16 7 -13 12
-27 11 -31 -1 -5 5 -8 13 -8 9 0 12 -6 9 -15 -4 -8 -1 -15 6 -15 6 0 8 -5 5
-10 -3 -6 0 -13 9 -16 8 -3 12 -12 9 -20 -3 -8 -1 -14 4 -14 5 0 9 -10 10 -22
1 -12 11 -34 23 -49 11 -16 20 -33 20 -39 0 -5 5 -10 11 -10 6 0 9 -6 6 -14
-3 -8 1 -17 9 -20 9 -3 12 -10 9 -16 -3 -5 -2 -10 3 -10 7 0 26 -30 67 -111 5
-10 15 -19 22 -19 7 0 13 -7 13 -16 0 -9 13 -33 30 -54 16 -21 30 -43 30 -48
0 -6 6 -15 13 -19 7 -4 28 -28 47 -53 19 -25 45 -53 57 -63 13 -10 22 -21 20
-26 -3 -10 227 -241 240 -241 6 0 22 -13 35 -28 13 -16 31 -33 40 -38 9 -5 32
-24 52 -42 20 -18 41 -30 46 -27 6 3 10 0 10 -8 0 -7 19 -24 43 -37 23 -12 54
-34 69 -48 16 -14 28 -22 28 -17 0 4 9 -2 19 -14 11 -12 23 -23 28 -23 20 -2
71 -28 82 -42 7 -9 17 -13 22 -10 5 3 9 0 9 -6 0 -7 6 -10 14 -7 8 3 17 -1 20
-9 3 -9 10 -13 15 -10 5 4 11 3 13 -1 4 -10 161 -88 170 -85 4 1 22 -7 39 -17
17 -11 38 -17 45 -14 8 3 14 0 14 -6 0 -6 11 -11 24 -11 14 0 28 -5 31 -10 4
-6 12 -10 18 -9 7 1 25 -3 40 -9 16 -7 37 -12 48 -12 10 0 19 -4 19 -9 0 -8
45 -19 98 -23 12 -1 22 -5 22 -9 0 -8 55 -18 112 -22 20 -1 40 -6 44 -10 4 -4
27 -7 50 -7 24 0 45 -4 48 -8 3 -5 46 -8 95 -7 50 1 91 -2 91 -7 0 -11 287
-10 294 0 3 5 39 8 80 7 42 0 76 3 76 7 0 4 24 8 53 8 30 0 57 3 61 7 4 4 19
9 34 10 58 5 102 16 102 23 0 5 14 7 32 6 17 -1 49 6 69 16 21 10 47 18 58 18
11 0 22 4 25 9 3 5 15 7 26 4 12 -3 20 0 20 7 0 7 8 10 20 7 11 -3 20 -1 20 4
0 5 6 9 14 9 7 0 27 7 42 15 16 8 37 15 47 15 9 0 17 4 17 10 0 5 3 9 8 8 4
-1 21 5 37 12 17 7 32 14 35 15 3 1 19 7 35 14 17 7 32 12 34 11 2 -1 7 2 10
7 3 5 33 22 66 37 33 15 64 34 68 42 5 8 12 12 18 9 5 -4 12 1 15 9 3 9 11 13
17 9 5 -3 15 0 21 8 6 8 28 23 49 32 20 10 37 23 37 29 0 5 6 8 13 5 7 -3 19
4 25 14 7 10 18 19 25 19 6 0 23 12 36 25 13 14 26 23 29 21 2 -3 13 6 24 19
11 14 23 23 27 20 4 -2 22 12 40 32 17 19 34 33 36 31 6 -6 305 292 305 304 0
4 14 21 30 36 17 16 30 33 30 37 0 4 11 18 25 31 14 13 26 27 26 31 0 5 9 18
19 31 11 12 20 25 20 28 0 3 14 23 30 44 17 21 30 43 30 49 0 6 5 11 11 11 5
0 8 4 5 8 -3 5 2 18 12 28 24 28 42 61 42 79 0 9 6 18 14 21 8 3 12 12 9 20
-3 8 0 14 6 14 6 0 11 5 11 10 0 6 9 23 20 39 12 15 22 37 23 49 1 12 5 22 9
22 4 0 8 7 8 15 0 8 4 15 10 15 5 0 7 6 4 14 -3 7 4 28 15 46 10 18 17 39 14
46 -3 8 -1 14 5 14 9 0 19 25 28 67 1 7 9 26 18 44 9 17 13 35 11 40 -3 4 -1
10 5 14 5 3 10 19 10 35 0 16 4 31 9 34 5 4 8 14 6 24 -1 9 2 23 7 29 6 7 8
19 5 28 -4 8 -1 20 6 27 7 7 13 27 15 43 5 64 15 120 21 130 4 6 7 38 6 72 -1
35 2 63 7 63 10 0 11 464 1 474 -4 4 -9 33 -11 64 -5 98 -14 162 -22 162 -4 0
-7 17 -5 38 1 20 -2 40 -8 44 -5 3 -10 20 -9 37 0 17 -3 33 -8 36 -5 3 -7 14
-5 25 2 10 -2 24 -9 29 -7 6 -11 22 -8 36 2 14 0 25 -7 25 -5 0 -8 7 -5 15 4
8 -1 17 -10 21 -12 5 -13 10 -5 25 7 14 6 21 -4 25 -7 2 -14 10 -15 17 -6 44
-16 77 -23 77 -5 0 -8 3 -7 8 4 17 -15 82 -24 82 -6 0 -8 7 -4 15 3 9 0 15 -9
15 -9 0 -12 6 -9 15 4 8 1 15 -6 15 -7 0 -10 7 -6 15 3 8 1 15 -4 15 -5 0 -12
10 -16 23 -4 12 -17 45 -30 74 -13 28 -24 57 -24 62 0 6 -4 11 -10 11 -5 0
-10 7 -10 15 0 9 -7 18 -15 21 -8 4 -15 15 -15 25 0 10 -5 19 -11 19 -5 0 -8
4 -4 9 3 5 -4 16 -15 24 -11 7 -17 17 -13 21 4 3 -3 13 -15 22 -12 8 -20 19
-17 24 3 5 -4 15 -15 23 -11 7 -17 16 -14 20 3 3 -2 14 -10 24 -52 58 -66 77
-71 94 -4 11 -11 19 -16 19 -5 0 -13 8 -16 18 -4 9 -35 45 -69 79 -34 34 -59
64 -56 67 3 3 -3 8 -12 12 -10 4 -53 43 -98 88 -44 44 -84 80 -88 79 -5 -2
-20 11 -34 27 -13 17 -28 30 -33 30 -4 0 -20 11 -35 25 -15 14 -32 25 -37 25
-6 0 -16 9 -23 19 -6 10 -17 17 -23 14 -7 -2 -15 3 -18 11 -4 9 -13 16 -22 16
-8 0 -15 4 -15 10 0 5 -11 12 -24 16 -14 3 -27 12 -30 20 -3 8 -12 14 -21 14
-8 0 -15 5 -15 11 0 5 -4 8 -8 5 -5 -3 -18 2 -28 12 -10 9 -44 28 -74 42 -30
14 -57 28 -60 31 -7 9 -104 52 -112 51 -5 -1 -8 3 -8 9 0 6 -9 9 -19 6 -12 -3
-22 1 -25 10 -3 8 -10 12 -15 8 -5 -3 -12 -1 -15 4 -3 4 -20 12 -38 16 -18 4
-35 9 -38 10 -40 17 -77 29 -82 27 -5 -1 -8 2 -8 7 0 9 -75 27 -97 22 -7 -1
-13 3 -13 9 0 5 -9 10 -20 10 -11 0 -20 3 -20 8 0 4 -12 8 -27 9 -64 6 -113
16 -113 22 0 4 -16 7 -35 6 -20 -1 -38 2 -41 6 -3 5 -27 9 -54 9 -27 0 -51 4
-54 9 -3 5 -28 8 -56 6 -28 -2 -53 1 -56 6 -6 11 -411 11 -439 0z m385 -542
c0 -4 24 -7 54 -7 29 1 59 -2 65 -6 7 -4 29 -9 49 -11 42 -5 90 -14 112 -22 8
-3 24 -6 35 -7 11 -1 26 -5 33 -9 7 -5 20 -6 28 -3 8 3 17 -1 20 -8 3 -8 14
-13 25 -11 10 2 19 0 19 -6 0 -5 11 -9 25 -9 14 0 25 -5 25 -11 0 -5 4 -7 10
-4 5 3 24 -2 42 -12 18 -9 38 -18 43 -19 26 -4 55 -17 55 -25 0 -5 3 -8 8 -7
4 1 21 -5 38 -15 17 -9 34 -13 38 -10 3 4 6 1 6 -5 0 -7 7 -12 15 -12 8 0 15
-5 15 -11 0 -6 7 -9 15 -5 8 3 15 1 15 -4 0 -5 10 -12 23 -15 12 -4 32 -17 45
-28 12 -11 22 -17 22 -14 0 4 8 0 18 -8 9 -8 20 -14 24 -13 4 2 15 -7 23 -20
9 -12 20 -20 24 -18 4 3 17 -5 29 -17 11 -12 37 -33 57 -47 21 -14 62 -49 92
-77 30 -29 62 -53 70 -53 8 0 11 -4 8 -10 -3 -5 1 -10 9 -10 10 0 13 -6 10
-15 -4 -8 -1 -15 5 -15 20 0 184 -186 181 -205 -1 -4 14 -19 32 -36 18 -16 29
-29 24 -29 -5 0 1 -11 14 -25 13 -14 20 -25 15 -25 -4 0 2 -8 13 -19 12 -10
19 -21 15 -25 -3 -3 -1 -6 5 -6 7 0 12 -9 12 -20 0 -11 4 -20 8 -20 8 0 36
-51 32 -59 -1 -2 2 -7 7 -10 11 -8 57 -103 55 -113 -1 -5 2 -8 8 -8 5 0 10 -7
10 -15 0 -9 8 -30 17 -48 9 -18 18 -39 19 -47 5 -30 19 -73 33 -100 4 -8 7
-25 6 -37 -1 -13 2 -23 7 -23 4 0 8 -13 8 -29 0 -17 4 -32 9 -35 5 -4 8 -17 6
-31 -1 -14 2 -25 6 -25 5 0 9 -20 9 -44 0 -25 4 -47 9 -51 6 -3 9 -23 7 -43
-2 -21 1 -49 6 -63 5 -13 10 -105 10 -204 0 -225 0 -227 -10 -221 -5 3 -8 -19
-7 -49 1 -30 -1 -55 -6 -55 -5 0 -9 -20 -9 -45 0 -25 -4 -45 -8 -45 -5 0 -8
-15 -7 -32 1 -18 -1 -37 -5 -43 -6 -9 -16 -38 -26 -85 -2 -8 -7 -32 -10 -52
-3 -21 -9 -38 -14 -38 -6 0 -29 -64 -29 -83 -1 -4 -8 -22 -18 -40 -9 -17 -16
-35 -15 -39 1 -5 -2 -8 -7 -8 -9 0 -22 -33 -24 -60 -1 -8 -7 -19 -13 -25 -7
-5 -26 -37 -44 -70 -43 -83 -53 -99 -67 -108 -7 -4 -13 -15 -13 -24 0 -9 -8
-22 -17 -29 -10 -7 -18 -16 -18 -21 0 -5 -10 -20 -23 -33 -12 -14 -30 -35 -40
-48 l-17 -23 -355 356 c-279 279 -352 357 -342 367 6 6 12 22 12 34 0 13 4 25
9 28 5 3 7 19 5 36 -2 19 0 29 6 25 6 -3 10 5 10 19 0 14 4 27 9 30 4 3 7 17
6 31 -2 14 0 25 5 25 8 0 25 49 21 64 -1 4 3 14 10 22 6 7 8 17 5 23 -3 5 1
11 9 15 8 3 12 12 9 20 -3 8 -1 17 5 21 6 3 11 15 11 26 0 10 4 19 9 19 4 0 8
8 8 18 -1 9 5 31 12 47 33 73 43 98 45 109 1 6 7 21 14 33 7 12 13 30 15 41 2
11 8 26 15 34 6 8 13 23 15 34 2 10 9 30 14 44 6 14 12 30 13 35 1 6 11 27 21
48 11 20 17 37 15 37 -3 0 1 15 8 33 7 17 11 37 9 44 -2 6 0 14 5 17 13 8 -23
144 -44 167 -9 10 -13 19 -9 19 4 0 -2 8 -13 19 -12 10 -20 20 -17 23 3 2 -8
17 -24 32 l-29 28 -21 -21 c-12 -12 -19 -26 -16 -31 3 -5 -4 -11 -15 -15 -11
-3 -23 -17 -26 -31 -3 -13 -10 -24 -15 -24 -5 0 -14 -10 -19 -22 -11 -26 -32
-60 -41 -68 -3 -3 -14 -21 -25 -40 -10 -19 -26 -40 -34 -47 -8 -7 -11 -13 -6
-13 10 0 -13 -30 -24 -30 -4 0 -7 23 -7 50 1 28 4 50 8 50 4 0 7 17 7 38 0 20
3 45 7 54 4 10 8 38 8 63 1 25 5 45 8 45 4 0 7 74 8 165 0 96 -4 165 -9 165
-5 0 -8 13 -6 30 2 16 -2 38 -9 47 -7 9 -11 23 -8 30 3 7 0 13 -7 13 -7 0 -10
6 -7 13 3 7 -8 35 -24 63 -16 27 -32 57 -35 67 -12 33 -30 22 -81 -49 -30 -41
-57 -94 -55 -106 1 -5 -2 -8 -7 -8 -8 0 -18 -20 -26 -50 -1 -3 -7 -18 -14 -35
-7 -16 -14 -39 -16 -50 -2 -11 -9 -38 -15 -60 -7 -22 -11 -59 -11 -82 1 -23
-3 -44 -9 -48 -7 -4 -10 3 -7 22 2 15 -2 57 -9 93 -6 36 -10 73 -9 82 2 10 0
20 -6 23 -5 4 -9 33 -9 65 0 32 -4 61 -9 64 -5 3 -7 20 -6 38 2 18 0 38 -5 43
-4 6 -10 33 -14 60 -3 28 -6 55 -7 62 -2 13 -69 48 -113 59 -14 3 -26 10 -26
16 0 5 -4 7 -9 4 -5 -3 -14 0 -20 8 -13 16 -54 9 -48 -8 2 -6 -4 -29 -13 -51
-9 -22 -16 -48 -14 -57 1 -10 -2 -20 -7 -24 -5 -3 -9 -18 -9 -35 0 -16 -4 -29
-9 -29 -5 0 -8 -18 -7 -40 2 -22 -3 -45 -9 -50 -7 -6 -10 -21 -7 -35 2 -14 1
-33 -4 -42 -4 -10 -8 -48 -9 -84 -1 -36 -5 -71 -9 -77 -4 -6 -7 -63 -7 -127 0
-63 -3 -115 -7 -115 -5 0 -9 -44 -9 -97 -2 -148 -3 -162 -12 -138 -4 11 -6 37
-5 59 2 22 0 45 -5 50 -4 6 -7 63 -6 126 1 63 -3 121 -8 128 -5 7 -9 90 -9
184 1 95 -3 177 -8 183 -5 6 -8 30 -7 54 2 23 0 44 -4 46 -3 3 -57 5 -119 6
-90 1 -116 -2 -124 -14 -7 -9 -11 -90 -11 -226 1 -116 -3 -211 -7 -211 -5 0
-8 -37 -7 -82 2 -198 0 -228 -16 -222 -8 4 -15 12 -15 20 0 8 -6 14 -13 14 -8
0 -69 56 -137 125 -68 69 -128 125 -132 125 -11 0 -617 607 -620 621 -2 6 -27
34 -55 62 -29 27 -53 55 -53 62 0 14 40 53 40 39 0 -5 6 -2 13 6 22 28 100 79
110 73 6 -3 7 -1 4 4 -7 10 20 28 36 25 4 -1 7 3 7 8 0 6 7 10 15 10 8 0 15 4
15 10 0 5 7 7 15 4 8 -4 15 -1 15 4 0 6 17 19 38 29 20 9 40 21 43 26 3 5 10
9 15 9 23 2 44 11 44 19 0 5 3 8 8 7 7 -1 31 7 67 23 35 15 80 32 90 34 6 0
24 7 40 15 17 7 37 14 45 15 39 5 80 18 80 26 0 4 8 8 18 8 44 1 122 14 122
21 0 5 17 7 38 6 20 -1 42 3 49 10 8 8 26 9 53 4 29 -5 43 -4 46 4 5 13 364
18 364 5z m-1745 -789 c4 -6 11 -8 16 -5 5 4 9 0 9 -8 0 -8 23 -35 50 -61 28
-26 50 -49 50 -52 0 -7 53 -51 62 -53 12 -2 1035 -1025 1031 -1030 -2 -3 11
-20 29 -38 25 -25 33 -44 35 -74 1 -22 6 -46 12 -53 6 -7 6 -18 1 -25 -4 -8
-6 -20 -3 -28 4 -11 1 -12 -20 -2 -14 7 -25 15 -24 18 3 10 -186 201 -199 201
-7 0 -17 6 -21 13 -10 15 -71 58 -86 61 -7 1 -17 5 -23 9 -7 4 -26 5 -43 3
-17 -2 -28 1 -25 6 3 5 -20 5 -53 2 -32 -4 -59 -11 -61 -16 -2 -4 -11 -8 -19
-8 -11 0 -13 -4 -5 -12 5 -7 9 -29 8 -48 -2 -19 2 -44 7 -55 6 -11 12 -29 13
-40 3 -31 16 -70 36 -112 6 -11 7 -26 4 -32 -4 -6 -3 -11 2 -11 5 0 12 -10 15
-22 8 -37 31 -92 41 -99 5 -4 6 -14 3 -23 -3 -8 -2 -18 4 -21 24 -15 -8 -21
-110 -20 -75 0 -114 4 -123 13 -15 15 -19 197 -5 227 6 11 9 45 8 75 -2 69 -2
66 -2 120 0 25 0 52 0 60 0 8 1 35 2 59 1 24 -3 46 -9 50 -5 3 -9 21 -7 39 1
17 -1 32 -6 32 -5 0 -9 9 -9 20 0 20 -19 60 -55 115 -23 35 -77 87 -83 80 -3
-2 -13 6 -23 19 -16 21 -54 36 -99 41 -8 1 -23 6 -33 10 -10 4 -28 3 -40 -2
-12 -5 -37 -8 -54 -7 -18 1 -33 -2 -33 -6 0 -4 -15 -10 -32 -13 -43 -7 -61
-11 -73 -18 -16 -10 -69 -22 -82 -20 -7 1 -13 -3 -13 -9 0 -7 -14 -10 -32 -8
-25 2 -38 -3 -53 -22 -11 -13 -19 -30 -17 -36 1 -7 -2 -15 -8 -19 -5 -3 -10
-15 -10 -26 0 -10 -4 -19 -9 -19 -5 0 -7 -8 -4 -19 3 -10 0 -22 -6 -25 -6 -4
-11 -16 -11 -27 0 -10 -4 -19 -9 -19 -6 0 -8 -9 -6 -20 2 -11 0 -22 -6 -25 -5
-4 -9 -19 -9 -35 0 -16 -5 -32 -10 -35 -6 -4 -8 -10 -5 -15 3 -5 1 -11 -5 -15
-5 -3 -10 -19 -10 -34 0 -15 -3 -31 -7 -35 -5 -4 -8 -20 -9 -34 0 -15 -3 -34
-7 -42 -9 -24 -17 -89 -20 -160 -1 -36 -6 -70 -10 -77 -11 -17 -11 -144 0
-172 5 -13 9 -51 7 -83 -1 -32 2 -61 7 -64 5 -3 9 -13 9 -24 0 -10 7 -20 15
-24 8 -3 15 -2 15 2 0 4 14 21 30 39 17 18 30 36 30 42 0 5 6 14 13 18 14 9
29 39 32 63 0 8 5 26 10 40 12 36 12 92 -1 97 -6 2 -9 19 -8 38 2 19 -1 35 -6
35 -6 0 -10 11 -10 24 0 14 -5 28 -10 31 -6 4 -8 11 -5 16 4 5 2 9 -3 9 -14 0
-25 71 -13 83 5 5 7 15 5 22 -3 7 -1 16 5 19 6 4 8 13 5 20 -3 8 -1 17 5 21 6
3 11 19 11 36 0 16 5 29 10 29 6 0 10 6 9 13 -4 18 12 80 23 94 6 7 8 20 4 28
-3 8 -1 15 4 15 6 0 10 7 10 15 0 45 115 183 150 180 8 0 17 3 20 7 7 8 56 20
93 21 15 1 27 5 27 9 0 4 25 8 56 8 39 0 53 -3 48 -12 -4 -7 -3 -8 5 -4 21 13
161 -90 161 -120 0 -6 9 -19 20 -29 11 -10 20 -26 20 -35 0 -9 9 -25 20 -35
11 -10 18 -20 15 -23 -2 -2 2 -17 10 -33 8 -15 15 -32 15 -36 0 -4 -75 -7
-167 -6 -93 0 -172 -2 -178 -6 -5 -5 -56 -8 -113 -7 -61 1 -107 -3 -112 -9
-12 -15 -19 -60 -12 -72 4 -6 57 -10 135 -9 70 0 128 -3 130 -7 1 -5 61 -9
132 -10 l130 -2 1 -60 c0 -33 -3 -65 -7 -70 -8 -10 -14 -90 -9 -110 6 -23 -1
-66 -9 -60 -6 3 -8 -14 -6 -40 3 -48 -8 -56 -29 -21 -22 36 -130 136 -148 136
-10 0 -18 4 -18 8 0 15 -85 6 -120 -12 -64 -35 -70 -49 -50 -116 8 -25 15 -52
15 -60 1 -9 7 -25 13 -37 6 -11 8 -23 5 -27 -4 -3 -2 -16 4 -29 22 -46 31 -75
38 -132 2 -16 7 -41 13 -55 5 -14 7 -31 4 -39 -7 -22 48 -4 79 25 14 13 28 24
33 24 4 0 19 12 33 28 14 15 29 26 33 25 3 -1 28 20 54 47 26 27 56 52 67 55
10 4 19 11 19 16 0 5 7 9 15 9 8 0 15 3 15 8 0 10 342 9 358 -1 11 -8 61 -97
63 -114 1 -5 10 -20 20 -34 10 -14 16 -29 12 -33 -3 -3 -2 -6 4 -6 9 0 14 -9
22 -45 1 -5 13 -23 25 -40 13 -16 26 -39 29 -50 6 -19 2 -20 -94 -19 -55 0
-102 -3 -105 -8 -3 -4 -20 -8 -38 -8 -18 0 -36 -3 -40 -7 -3 -4 -13 -8 -21 -9
-8 -1 -40 -15 -72 -30 -32 -15 -61 -27 -65 -26 -5 1 -8 -2 -8 -8 0 -5 -7 -10
-15 -10 -8 0 -15 -4 -15 -10 0 -5 -6 -10 -14 -10 -7 0 -28 -14 -45 -32 -17
-17 -31 -28 -31 -23 0 4 -18 -11 -41 -33 -22 -23 -45 -42 -50 -42 -4 0 -49
-42 -99 -92 -50 -51 -95 -93 -100 -93 -5 0 -25 -17 -45 -38 -52 -55 -71 -59
-107 -24 -16 16 -27 32 -24 34 3 3 -11 20 -30 38 -18 18 -34 37 -34 42 0 5
-11 20 -25 33 -13 12 -22 26 -20 30 3 5 -2 10 -10 14 -8 3 -15 12 -15 20 0 8
-8 21 -19 28 -18 13 -21 18 -21 36 0 5 -9 19 -20 32 -11 13 -20 28 -20 35 0 7
-10 23 -23 37 -13 14 -21 30 -19 36 2 7 -1 12 -6 12 -5 0 -12 8 -16 18 -7 21
-28 55 -39 63 -5 3 -9 9 -9 12 0 17 -11 47 -18 47 -6 0 -60 101 -67 125 -1 6
-7 28 -13 50 -7 22 -12 52 -13 67 -1 16 -5 28 -8 28 -8 0 -19 53 -22 105 -1
22 -6 43 -12 47 -5 4 -8 27 -6 51 1 25 -1 47 -6 50 -5 3 -7 101 -6 219 4 242
7 315 18 341 4 10 9 33 10 50 1 18 4 39 7 47 8 19 21 71 23 90 1 8 4 22 7 30
3 8 14 44 24 80 10 36 21 67 24 70 3 3 5 10 6 15 2 31 18 75 26 75 5 0 7 4 3
9 -3 5 -1 12 5 16 5 3 10 15 10 26 0 10 5 19 10 19 6 0 9 4 8 8 -4 12 44 112
53 112 5 0 6 7 3 15 -4 8 -2 15 4 15 9 0 20 26 18 41 -1 3 11 20 27 38 15 18
27 38 27 45 0 6 9 18 19 26 11 7 18 17 15 21 -3 5 3 17 13 29 10 11 26 29 36
40 19 22 33 25 42 10z m918 -2194 c42 0 77 -4 77 -8 0 -5 15 -8 34 -8 19 0 37
-4 40 -9 4 -5 14 -8 24 -6 9 1 26 -2 37 -8 21 -11 40 -17 63 -19 6 -1 12 -5
12 -10 0 -4 7 -8 15 -8 9 0 35 -10 58 -22 23 -12 44 -22 47 -23 3 0 16 -7 30
-15 14 -8 27 -15 30 -15 16 -4 60 -29 60 -35 0 -7 31 -21 55 -24 6 -1 24 -10
42 -19 17 -9 38 -14 46 -11 8 3 18 1 22 -5 8 -14 271 -15 279 -2 4 5 14 8 24
6 9 -1 23 2 30 8 7 5 15 7 19 3 3 -3 15 2 26 11 10 10 21 17 23 16 4 -3 21 2
52 14 9 3 20 7 24 7 4 1 16 9 27 18 18 15 59 41 71 44 21 5 39 18 35 25 -3 5
6 11 20 15 14 3 25 10 25 16 0 5 29 -20 65 -57 36 -36 69 -63 74 -60 5 3 12
-4 16 -15 3 -11 10 -20 14 -20 9 0 110 -99 112 -109 0 -3 27 -28 59 -56 32
-27 59 -55 59 -60 1 -6 10 -16 22 -23 12 -7 19 -16 16 -19 -3 -2 11 -22 31
-43 63 -66 62 -63 32 -96 -15 -16 -33 -30 -40 -32 -8 -2 -19 -10 -25 -18 -11
-16 -48 -39 -77 -50 -10 -3 -18 -10 -18 -14 0 -5 -24 -20 -52 -34 -63 -31 -91
-48 -99 -59 -3 -5 -8 -8 -10 -6 -2 1 -20 -5 -39 -13 -41 -18 -103 -43 -110
-43 -3 -1 -20 -9 -37 -18 -18 -10 -33 -14 -33 -10 0 4 -5 2 -12 -5 -7 -7 -24
-12 -38 -12 -15 0 -30 -3 -34 -7 -7 -7 -12 -9 -61 -19 -16 -3 -37 -8 -45 -12
-8 -3 -24 -6 -35 -7 -11 -1 -31 -5 -45 -8 -34 -9 -103 -17 -175 -22 -33 -2
-66 -4 -73 -4 -7 -1 -11 -4 -9 -8 7 -12 -205 -8 -228 3 -11 6 -51 10 -88 9
-37 -1 -70 2 -73 7 -3 4 -25 8 -50 8 -24 0 -44 3 -44 8 0 4 -17 8 -38 9 -20 1
-57 7 -82 13 -25 7 -49 13 -55 14 -8 2 -79 23 -105 31 -6 2 -34 13 -57 22 -10
4 -22 8 -28 9 -29 6 -55 17 -55 24 0 5 -8 7 -17 6 -10 -2 -20 0 -23 3 -8 10
-80 41 -95 41 -8 0 -15 4 -15 10 0 5 -3 10 -7 9 -14 -2 -53 13 -53 21 0 8 -51
34 -63 32 -4 -1 -10 5 -13 13 -3 8 -10 13 -14 10 -4 -3 -13 2 -20 10 -7 8 -18
15 -25 15 -8 0 -15 3 -17 8 -4 10 -65 52 -76 52 -5 0 -17 11 -28 24 -10 14
-22 22 -26 20 -5 -3 -18 6 -29 20 -12 15 -34 33 -51 42 -25 13 -37 46 -15 44
4 0 22 15 41 34 18 20 35 33 38 31 2 -3 22 13 43 35 22 22 42 40 46 40 4 0 28
19 53 43 99 92 177 162 193 171 10 5 39 32 65 59 27 28 48 46 48 42 0 -5 10 1
23 12 28 25 48 33 67 26 8 -4 50 -7 93 -7z"/>
</g>
</svg>
